# xmcd
#
# Track frame offsets:
#	150
#	17420
#	33857
#	56632
#	74553
#	92384
#	111265
#	133422
#	149849
#	166582
#	185125
#	202094
#	221299
#	237177
#	252304
#	271356
#	282221
#	294064
#	306430
#	327082
#
# Disc length: 4602 seconds
#
# Revision: 2
# Processed by: cddbd v1.5.2PL0 Copyright (c) Steve Scherf et al.
# Submitted via: audiograbber 1.83.01
#
DISCID=3011f814
DTITLE=Various Artist - ZMPB2016-1
DYEAR=2016
DGENRE=Karaoke
TTITLE0=5 Seconds Of Summer - Jet Black Heart
TTITLE1=Adam Lambert - The Original High
TTITLE2=Adele - Hello
TTITLE3=Adele - Million Years Ago
TTITLE4=Adele - Send My Love (To Your New Lover)
TTITLE5=Adele - Water Under The Bridge
TTITLE6=Adele - When We Were Young
TTITLE7=Alan Walker - Faded
TTITLE8=Alessia Cara - Here
TTITLE9=Ariana Grande - Dangerous Woman
TTITLE10=Ariana Grande - Focus
TTITLE11=Ariana Grande - Into You
TTITLE12=Ariana Grande - One Last Time
TTITLE13=Aurora - Half The World Away
TTITLE14=Ben Haenow and Kelly Clarkston - Second Hand Heart 
TTITLE15=Bryan Adams - Do What Ya Gotta Do
TTITLE16=Bryan Adams - Don't Even Try
TTITLE17=Bryan Adams - You Belong To Me
TTITLE18=Callum Scott - Dancing On My Own
TTITLE19=Callum Scott (Tiesto Remix) - Dancing On My Own
EXTD=
EXTT0=
EXTT1=
EXTT2=
EXTT3=
EXTT4=
EXTT5=
EXTT6=
EXTT7=
EXTT8=
EXTT9=
EXTT10=
EXTT11=
EXTT12=
EXTT13=
EXTT14=
EXTT15=
EXTT16=
EXTT17=
EXTT18=
EXTT19=
PLAYORDER=
